<?xml version="1.0"?>
<svg version="1.1" xmlns="http://www.w3.org/2000/svg" xmlns:xlink="http://www.w3.org/1999/xlink" width="22" height="22">
    <desc iVinci="yes" version="4.6" gridStep="20" showGrid="no" snapToGrid="no" codePlatform="0"/>
    <g id="Layer1" name="Layer 1" opacity="1">
        <g id="Shape1">
            <desc shapeID="1" type="0" basicInfo-basicType="0" basicInfo-roundedRectRadius="12" basicInfo-polygonSides="6" basicInfo-starPoints="5" bounding="rect(-11,-11,22,22)" text="" font-familyName="" font-pixelSize="20" font-bold="0" font-underline="0" font-alignment="1" strokeStyle="0" markerStart="0" markerEnd="0" shadowEnabled="0" shadowOffsetX="0" shadowOffsetY="2" shadowBlur="4" shadowOpacity="160" blurEnabled="0" blurRadius="4" transform="matrix(1,0,0,1,11,11)" pers-center="0,0" pers-size="0,0" pers-start="0,0" pers-end="0,0" locked="0" mesh="" flag=""/>
            <path id="shapePath1" d="M19.9,10 C19.4,5.8 16.1,2.5 12,2.1 L12,0 L10,0 L10,2.1 C5.8,2.5 2.5,5.8 2.1,10 L0,10 L0,12 L2.1,12 C2.6,16.2 5.9,19.5 10,19.9 L10,22 L12,22 L12,19.9 C16.2,19.4 19.5,16.1 19.9,12 L22,12 L22,10 L19.9,10 M11,18 C7.1,18 4,14.9 4,11 C4,7.1 7.1,4 11,4 C14.9,4 18,7.1 18,11 C18,14.9 14.9,18 11,18 Z" style="stroke:none;fill-rule:evenodd;fill:#4c4c4c;fill-opacity:1;"/>
        </g>
    </g>
</svg>
